<svg width="32" height="31" viewBox="0 0 32 31" fill="none" xmlns="http://www.w3.org/2000/svg">
<path d="M15.4997 20.0377C15.3441 19.9835 15.1997 19.8918 15.0663 19.7626L10.2663 15.1126C9.99967 14.8543 9.87167 14.5529 9.88234 14.2084C9.89301 13.864 10.021 13.5626 10.2663 13.3043C10.533 13.0459 10.8499 12.9116 11.217 12.9013C11.5841 12.8909 11.9006 13.0145 12.1663 13.272L14.6663 15.6938V6.45842C14.6663 6.09245 14.7943 5.78589 15.0503 5.53875C15.3063 5.29161 15.6228 5.16761 15.9997 5.16675C16.3766 5.16589 16.6935 5.28989 16.9503 5.53875C17.2072 5.78761 17.3348 6.09417 17.333 6.45842V15.6938L19.833 13.272C20.0997 13.0136 20.4166 12.8896 20.7837 12.9C21.1508 12.9103 21.4672 13.0451 21.733 13.3043C21.9775 13.5626 22.1055 13.864 22.117 14.2084C22.1286 14.5529 22.0006 14.8543 21.733 15.1126L16.933 19.7626C16.7997 19.8918 16.6552 19.9835 16.4997 20.0377C16.3441 20.092 16.1775 20.1187 15.9997 20.1178C15.8219 20.1169 15.6552 20.0902 15.4997 20.0377ZM7.99967 25.8334C7.26634 25.8334 6.63879 25.5807 6.11701 25.0752C5.59523 24.5697 5.3339 23.9614 5.33301 23.2501V20.6668C5.33301 20.3008 5.46101 19.9942 5.71701 19.7471C5.97301 19.4999 6.28945 19.3759 6.66634 19.3751C7.04323 19.3742 7.36012 19.4982 7.61701 19.7471C7.8739 19.9959 8.00145 20.3025 7.99967 20.6668V23.2501H23.9997V20.6668C23.9997 20.3008 24.1277 19.9942 24.3837 19.7471C24.6397 19.4999 24.9561 19.3759 25.333 19.3751C25.7099 19.3742 26.0268 19.4982 26.2837 19.7471C26.5406 19.9959 26.6681 20.3025 26.6663 20.6668V23.2501C26.6663 23.9605 26.4055 24.5689 25.8837 25.0752C25.3619 25.5815 24.7339 25.8343 23.9997 25.8334H7.99967Z" fill="white"/>
</svg>
