<svg width="40" height="40" viewBox="0 0 40 40" fill="none" xmlns="http://www.w3.org/2000/svg">
<path d="M35 16.6667V15L25 5H8.33333C6.48333 5 5 6.48333 5 8.33333V31.6667C5 32.5507 5.35119 33.3986 5.97631 34.0237C6.60143 34.6488 7.44928 35 8.33333 35H18.3333V31.8833L32.3167 17.9C33.05 17.1667 33.9833 16.7667 35 16.6667ZM23.3333 7.5L32.5 16.6667H23.3333V7.5ZM38.0833 23.65L36.45 25.2833L33.05 21.8833L34.6833 20.25C35 19.9167 35.55 19.9167 35.8833 20.25L38.0833 22.45C38.4167 22.7833 38.4167 23.3333 38.0833 23.65ZM31.8833 23.05L35.2833 26.45L25.0667 36.6667H21.6667V33.2667L31.8833 23.05Z" fill="black"/>
</svg>
